<svg xmlns="http://www.w3.org/2000/svg" width="91" height="82" fill="none"><path fill="#00BCB5" fill-opacity=".1" stroke="#fff" stroke-width=".1" d="M45.297.05c24.989 0 45.247 20.258 45.247 45.247v5.953c0 16.955-13.745 30.7-30.7 30.7H30.75c-16.955 0-30.7-13.745-30.7-30.7v-5.953C.05 20.307 20.308.05 45.297.05Z"/><path fill="#00BCB5" d="M5.156 50.406c0-22.373 18.136-40.51 40.51-40.51 22.372 0 40.509 18.137 40.509 40.51v3.672c0 14.64-11.869 26.508-26.51 26.508h-28c-14.64 0-26.51-11.868-26.51-26.508z"/><path fill="url(#a)" d="M6.629 48.565c0-21.356 17.312-38.668 38.668-38.668s38.668 17.312 38.668 38.668v3.745c0 14.055-11.394 25.449-25.448 25.449h-26.44c-14.055 0-25.448-11.394-25.448-25.449z"/><path fill="#fff" fill-opacity=".29" d="M65.643 17.41c-1.653-2.734 2.557-5.31 5.64-4.476 2.764.748 5.526 3.075 6.518 5.76.966 2.614.852 5.427-1.67 8.71-3.781 4.924-2.407-3.95-5.926-6.653-1.942-1.492-3.865-2.188-4.562-3.341"/><circle cx="58" cy="38" r="12" fill="#E9E9E9"/><circle cx="58.5" cy="36.5" r="12.5" fill="#fff"/><circle cx="58.5" cy="37.5" r="7.5" fill="#F2E0FA" transform="rotate(4.571 58.5 37.5)"/><circle cx="59.5" cy="36.5" r="7.5" fill="#8F06CD"/><circle cx="64" cy="30" r="4" fill="#fff"/><circle cx="34" cy="38" r="12" fill="#E9E9E9"/><circle cx="34.5" cy="36.5" r="12.5" fill="#fff"/><circle cx="34.5" cy="37.5" r="7.5" fill="#F2E0FA" transform="rotate(4.571 34.5 37.5)"/><circle cx="35.5" cy="36.5" r="7.5" fill="#8F06CD"/><circle cx="40" cy="30" r="4" fill="#fff"/><path stroke="#054A48" stroke-linecap="round" d="M30.314 57.104c-1.062 4.654 5.523 4.83 7.363 3.511"/><path fill="#00BCB5" fill-opacity=".1" stroke="#fff" stroke-width=".1" d="M45.297.05c24.989 0 45.247 20.258 45.247 45.247v5.953c0 16.955-13.745 30.7-30.7 30.7H30.75c-16.955 0-30.7-13.745-30.7-30.7v-5.953C.05 20.307 20.308.05 45.297.05Z"/><path fill="#00BCB5" d="M5.156 50.406c0-22.373 18.136-40.51 40.51-40.51 22.372 0 40.509 18.137 40.509 40.51v3.672c0 14.64-11.869 26.508-26.51 26.508h-28c-14.64 0-26.51-11.868-26.51-26.508z"/><path fill="url(#b)" d="M6.629 48.565c0-21.356 17.312-38.668 38.668-38.668s38.668 17.312 38.668 38.668v3.745c0 14.055-11.394 25.449-25.448 25.449h-26.44c-14.055 0-25.448-11.394-25.448-25.449z"/><path fill="#fff" fill-opacity=".29" d="M65.643 17.41c-1.653-2.734 2.557-5.31 5.64-4.476 2.764.748 5.526 3.075 6.518 5.76.966 2.614.852 5.427-1.67 8.71-3.781 4.924-2.407-3.95-5.926-6.653-1.942-1.492-3.865-2.188-4.562-3.341"/><circle cx="58" cy="38" r="12" fill="#E9E9E9"/><circle cx="58.5" cy="36.5" r="12.5" fill="#fff"/><circle cx="58.5" cy="37.5" r="7.5" fill="#F2E0FA" transform="rotate(4.571 58.5 37.5)"/><circle cx="59.5" cy="36.5" r="7.5" fill="#8F06CD"/><circle cx="64" cy="30" r="4" fill="#fff"/><circle cx="34" cy="38" r="12" fill="#E9E9E9"/><circle cx="34.5" cy="36.5" r="12.5" fill="#fff"/><circle cx="34.5" cy="37.5" r="7.5" fill="#F2E0FA" transform="rotate(4.571 34.5 37.5)"/><circle cx="35.5" cy="36.5" r="7.5" fill="#8F06CD"/><circle cx="40" cy="30" r="4" fill="#fff"/><path stroke="#054A48" stroke-linecap="round" d="M30.314 57.104c-1.062 4.654 5.523 4.83 7.363 3.511"/><defs><radialGradient id="a" cx="0" cy="0" r="1" gradientTransform="matrix(-40.1697 56.5517 -64.1855 -41.1114 53.931 32.517)" gradientUnits="userSpaceOnUse"><stop offset=".05" stop-color="#B1F1EF" stop-opacity=".98"/><stop offset=".606" stop-color="#00BCB5"/></radialGradient><radialGradient id="b" cx="0" cy="0" r="1" gradientTransform="matrix(-40.1697 56.5517 -64.1855 -41.1114 53.931 32.517)" gradientUnits="userSpaceOnUse"><stop offset=".05" stop-color="#B1F1EF" stop-opacity=".98"/><stop offset=".606" stop-color="#00BCB5"/></radialGradient></defs></svg>