<svg width="91" height="82" viewBox="0 0 91 82" fill="none" xmlns="http://www.w3.org/2000/svg">
<path d="M45.2969 0.0498047C70.286 0.0498047 90.5439 20.3077 90.5439 45.2969V51.25C90.5439 68.2051 76.7989 81.9502 59.8438 81.9502H30.75C13.7949 81.9502 0.0498047 68.2051 0.0498047 51.25V45.2969C0.0498047 20.3077 20.3077 0.0498047 45.2969 0.0498047Z" fill="#00BCB5" fill-opacity="0.1" stroke="white" stroke-width="0.1"/>
<path d="M5.15576 50.4059C5.15576 28.0332 23.2924 9.89655 45.6652 9.89655C68.0379 9.89655 86.1746 28.0332 86.1746 50.4059V54.0776C86.1746 68.7179 74.3062 80.5862 59.6659 80.5862H31.6644C17.0241 80.5862 5.15576 68.7179 5.15576 54.0776V50.4059Z" fill="#00BCB5"/>
<path d="M6.62878 48.5646C6.62878 27.2088 23.9411 9.89655 45.2968 9.89655C66.6526 9.89655 83.9649 27.2088 83.9649 48.5646V52.3103C83.9649 66.365 72.5713 77.7586 58.5166 77.7586H32.077C18.0223 77.7586 6.62878 66.365 6.62878 52.3103V48.5646Z" fill="url(#paint0_radial_174_2)"/>
<path d="M65.6426 17.4096C63.9898 14.6762 68.1995 12.0998 71.2829 12.9339C74.0474 13.6816 76.809 16.0086 77.8014 18.6949C78.7668 21.3079 78.6535 24.121 76.1317 27.4043C72.3496 32.3283 73.7238 23.4539 70.2051 20.7513C68.2629 19.2595 66.3399 18.5627 65.6426 17.4096Z" fill="white" fill-opacity="0.29"/>
<circle cx="58" cy="38" r="12" fill="#E9E9E9"/>
<circle cx="58.5" cy="36.5" r="12.5" fill="white"/>
<circle cx="58.5" cy="37.5" r="7.5" transform="rotate(4.57115 58.5 37.5)" fill="#F2E0FA"/>
<circle cx="59.5" cy="36.5" r="7.5" fill="#8F06CD"/>
<circle cx="64" cy="30" r="4" fill="white"/>
<circle cx="34" cy="38" r="12" fill="#E9E9E9"/>
<circle cx="34.5" cy="36.5" r="12.5" fill="white"/>
<circle cx="34.5" cy="37.5" r="7.5" transform="rotate(4.57115 34.5 37.5)" fill="#F2E0FA"/>
<circle cx="35.5" cy="36.5" r="7.5" fill="#8F06CD"/>
<circle cx="40" cy="30" r="4" fill="white"/>
<path d="M30.3137 57.1043C29.252 61.7582 35.8369 61.9333 37.6771 60.615" stroke="#054A48" stroke-linecap="round"/>
<path d="M45.2969 0.0498047C70.286 0.0498047 90.5439 20.3077 90.5439 45.2969V51.25C90.5439 68.2051 76.7989 81.9502 59.8438 81.9502H30.75C13.7949 81.9502 0.0498047 68.2051 0.0498047 51.25V45.2969C0.0498047 20.3077 20.3077 0.0498047 45.2969 0.0498047Z" fill="#00BCB5" fill-opacity="0.1" stroke="white" stroke-width="0.1"/>
<path d="M5.15576 50.4059C5.15576 28.0332 23.2924 9.89655 45.6652 9.89655C68.0379 9.89655 86.1746 28.0332 86.1746 50.4059V54.0776C86.1746 68.7179 74.3062 80.5862 59.6659 80.5862H31.6644C17.0241 80.5862 5.15576 68.7179 5.15576 54.0776V50.4059Z" fill="#00BCB5"/>
<path d="M6.62878 48.5646C6.62878 27.2088 23.9411 9.89655 45.2968 9.89655C66.6526 9.89655 83.9649 27.2088 83.9649 48.5646V52.3103C83.9649 66.365 72.5713 77.7586 58.5166 77.7586H32.077C18.0223 77.7586 6.62878 66.365 6.62878 52.3103V48.5646Z" fill="url(#paint1_radial_174_2)"/>
<path d="M65.6426 17.4096C63.9898 14.6762 68.1995 12.0998 71.2829 12.9339C74.0474 13.6816 76.809 16.0086 77.8014 18.6949C78.7668 21.3079 78.6535 24.121 76.1317 27.4043C72.3496 32.3283 73.7238 23.4539 70.2051 20.7513C68.2629 19.2595 66.3399 18.5627 65.6426 17.4096Z" fill="white" fill-opacity="0.29"/>
<circle cx="58" cy="38" r="12" fill="#E9E9E9"/>
<circle cx="58.5" cy="36.5" r="12.5" fill="white"/>
<circle cx="58.5" cy="37.5" r="7.5" transform="rotate(4.57115 58.5 37.5)" fill="#F2E0FA"/>
<circle cx="59.5" cy="36.5" r="7.5" fill="#8F06CD"/>
<circle cx="64" cy="30" r="4" fill="white"/>
<circle cx="34" cy="38" r="12" fill="#E9E9E9"/>
<circle cx="34.5" cy="36.5" r="12.5" fill="white"/>
<circle cx="34.5" cy="37.5" r="7.5" transform="rotate(4.57115 34.5 37.5)" fill="#F2E0FA"/>
<circle cx="35.5" cy="36.5" r="7.5" fill="#8F06CD"/>
<circle cx="40" cy="30" r="4" fill="white"/>
<path d="M30.3137 57.1043C29.252 61.7582 35.8369 61.9333 37.6771 60.615" stroke="#054A48" stroke-linecap="round"/>
<defs>
<radialGradient id="paint0_radial_174_2" cx="0" cy="0" r="1" gradientTransform="matrix(-40.1697 56.5517 -64.1855 -41.1114 53.9315 32.5172)" gradientUnits="userSpaceOnUse">
<stop offset="0.0501478" stop-color="#B1F1EF" stop-opacity="0.98"/>
<stop offset="0.605671" stop-color="#00BCB5"/>
</radialGradient>
<radialGradient id="paint1_radial_174_2" cx="0" cy="0" r="1" gradientTransform="matrix(-40.1697 56.5517 -64.1855 -41.1114 53.9315 32.5172)" gradientUnits="userSpaceOnUse">
<stop offset="0.0501478" stop-color="#B1F1EF" stop-opacity="0.98"/>
<stop offset="0.605671" stop-color="#00BCB5"/>
</radialGradient>
</defs>
</svg>
