<svg xmlns="http://www.w3.org/2000/svg" width="245" height="171" fill="none"><path fill="#000" d="M173.248 164.732q-.756 0-1.188-.432t-.432-1.224v-21.204q0-.828.432-1.224.432-.432 1.188-.432.792 0 1.188.432.432.396.432 1.224v3.276l-.396-.648a5.72 5.72 0 0 1 2.268-3.168q1.692-1.188 4.068-1.188 2.34 0 4.068 1.116 1.728 1.08 2.7 3.132.972 2.016.972 4.824 0 2.772-.972 4.86-.936 2.052-2.7 3.168-1.728 1.08-4.068 1.08t-4.032-1.188-2.268-3.132h.396v9.072q0 .792-.432 1.224t-1.224.432m6.804-9q1.548 0 2.7-.756 1.188-.756 1.836-2.196t.648-3.564q0-3.168-1.404-4.824t-3.78-1.656q-1.584 0-2.772.756-1.152.72-1.8 2.16-.612 1.44-.612 3.564 0 3.168 1.404 4.86 1.404 1.656 3.78 1.656m22.605 2.592q-2.844 0-4.896-1.08a7.87 7.87 0 0 1-3.132-3.132q-1.116-2.052-1.116-4.824 0-2.736 1.08-4.788 1.116-2.052 3.024-3.204 1.944-1.152 4.428-1.152 1.764 0 3.168.612 1.44.576 2.448 1.692t1.512 2.736q.54 1.584.54 3.6 0 .576-.36.9-.324.288-.972.288h-12.312v-2.088h11.484l-.612.504q0-1.872-.576-3.168-.54-1.332-1.62-2.016-1.044-.684-2.628-.684-1.728 0-2.952.828-1.224.792-1.872 2.268-.648 1.44-.648 3.348v.216q0 3.24 1.548 4.896t4.464 1.656q1.152 0 2.34-.288a7 7 0 0 0 2.34-1.044q.54-.324.972-.288.468 0 .756.288.288.252.36.648.072.36-.108.792t-.684.756q-1.188.828-2.844 1.296a12 12 0 0 1-3.132.432m20.167 0q-2.124 0-3.564-.756a4.95 4.95 0 0 1-2.124-2.196q-.684-1.44-.684-3.528v-8.856h-2.304q-.648 0-1.008-.324-.36-.36-.36-.936 0-.612.36-.936t1.008-.324h2.304v-3.924q0-.828.432-1.224.432-.432 1.224-.432t1.188.432q.432.396.432 1.224v3.924h4.356q.684 0 1.044.324t.36.936q0 .576-.36.936-.36.324-1.044.324h-4.356v8.568q0 1.98.828 2.988t2.736 1.008q.684 0 1.152-.108a2.9 2.9 0 0 1 .828-.144.59.59 0 0 1 .54.216q.252.252.252.936 0 .504-.18.936-.144.396-.612.54-.432.144-1.152.252-.72.144-1.296.144m-10.193-92.621q-4.522-1.294-6.736-5.424-2.186-4.221-.838-8.928.899-3.137 2.996-5.233 2.19-2.07 5.013-2.858 2.941-.855 5.986.016 2.954.846 4.904 3.102a11.6 11.6 0 0 1 2.832 5.105q.763 2.914-.135 6.052-.899 3.138-3.115 5.3a12.4 12.4 0 0 1-5.132 2.924q-2.822.79-5.775-.056m-12.818 44.761q-3.692-1.058-4.929-3.708-1.146-2.625-.55-7.148.715-4.588 2.605-11.537 1.982-6.921 3.804-11.193 1.914-4.245 4.342-5.747 2.453-1.593 6.145-.537t4.837 3.682q1.264 2.56.642 7.174-.623 4.615-2.604 11.537-1.89 6.948-3.805 11.193-1.888 4.153-4.341 5.747t-6.146.537"/><path fill="#000" d="M158.824 122.808q-6.432 0-8.928-7.872-2.496-7.968-2.496-25.632 0-9.888.672-17.376.672-7.584 3.072-11.808 2.496-4.32 7.68-4.32 3.744 0 5.664 2.208 2.016 2.208 2.784 6.24.864 4.032.96 9.6t.096 12.288l.288-.192q4.8-3.264 9.312-5.568 4.512-2.4 8.256-2.4 2.784 0 4.608 1.344 1.92 1.248 2.88 3.264.96 1.92.96 3.936 0 3.648-2.592 6.624t-6.72 6.048a31 31 0 0 1 2.208 3.168 73 73 0 0 1 2.4 3.648 28.5 28.5 0 0 1 2.688 5.184q1.056 2.688 1.056 4.896 0 2.592-1.248 4.128a7.36 7.36 0 0 1-3.072 2.112 10.2 10.2 0 0 1-3.648.48q-2.784-.192-5.568-2.688t-5.376-5.856a121 121 0 0 1-2.304-2.976 239 239 0 0 1-2.016-3.168q-1.44.576-2.784.96-.672 7.104-2.688 10.464-1.92 3.264-6.144 3.264m-28.192 0q-4.896 0-7.296-3.648-2.4-3.744-3.168-11.136-.768-7.488-.768-18.72 0-7.392.192-13.536.288-6.144 1.344-10.56 1.056-4.512 3.36-6.912 2.304-2.496 6.432-2.496t6.432 2.496q2.304 2.4 3.36 6.912 1.056 4.416 1.248 10.56.288 6.144.288 13.536 0 16.896-2.4 25.248-2.304 8.256-9.024 8.256M93.4 119.096q-7.104.096-12.48-2.88-5.28-3.072-8.352-8.256-2.976-5.28-3.168-11.616-.096-6.528 2.976-11.52 3.072-5.088 8.544-8.064t12.48-2.976q6.912-.096 12.192 2.88 5.376 2.976 8.544 8.064t3.36 11.616q.096 6.24-2.976 11.424-3.072 5.088-8.544 8.16-5.472 2.976-12.576 3.168m.288-14.016q2.592 0 4.512-2.016t1.92-4.704-1.92-4.608q-1.92-2.016-4.512-2.016t-4.512 2.016q-1.92 1.92-1.92 4.608t1.92 4.704 4.512 2.016m-51.365 32.644q-3.11.614-6.007.305-2.786-.233-4.834-1.688-2.03-1.36-2.57-4.092-.65-3.297 2.03-5.587t6.483-2.845q4.164-.723 6.33-1.64 2.244-1.03 3.17-2.779-8.664 1.71-14.346.189t-9.096-6.424q-3.32-4.923-5.01-13.493-.911-4.615-.713-8.569.18-4.047 1.806-6.716 1.701-2.783 5.186-3.47 4.71-.93 7.226 1.412 2.499 2.247 3.205 5.826a213 213 0 0 1 1.15 6.328q.5 3.034 1.249 5.332.747 2.298 2.25 3.47 1.503 1.171 4.14.651 2.638-.52 3.583-2.175t.763-4.065q-.18-2.41-.852-5.311-.69-2.995-1.32-6.198-.782-3.955.695-6.889 1.552-3.046 6.166-3.957 3.58-.705 6.116 1.24 2.613 1.833 4.316 5.509 1.686 3.581 2.596 8.196a69.4 69.4 0 0 1 1.297 15.498q-.151 7.663-2.767 14.245-2.52 6.565-7.955 11.257-5.34 4.675-14.288 6.44"/></svg>